<?xml version="1.0" encoding="UTF-8"?><svg id="Layer_2" xmlns="http://www.w3.org/2000/svg" viewBox="0 0 902.1 428.65"><defs><style>.cls-1{fill:#313bac;}</style></defs><g id="Layer_1-2"><path class="cls-1" d="M1.85,.56S0,234.12,0,303.12c0,34,0,125,87.07,125,0,16,0-339.71,0-339.71h105.93c89,.71,147,31.71,149,144.71-.14,98.78,.14,195,.14,195h85.71s.15-187,.15-246C428,107.12,373,5.12,215,.12,46.71-.32,1.85,.56,1.85,.56Z"/><path class="cls-1" d="M673,2.12h-197V215.12s0,213,229,213h197V235.12S914,2.12,673,2.12Zm184.25,375.11l-1.05,18.87-18.9,.02c-1.26,0-126.65,.14-162.28,.14-22.16,0-61.63-11.56-95.95-36.93-29.72-21.98-65.14-61.35-65.14-124.09,0-24.76,7.3-44.59,21.72-58.94,26.67-26.55,69.56-26.35,100.88-26.2,2.21,.01,87.37,.02,89.47,.02,.29,.01,.58,.02,.87,.04,25.04,1.09,36.24,9.65,41.05,18.52,.17,.32,.34,.65,.49,.97,4.88,9.95,2.07,19.96,2.07,19.96-.87,.02-22.38,.51-127.48,.51-2.16,0-4.38-.01-6.66-.02-24.3-.12-57.58-.27-72.48,14.55-6.68,6.66-9.93,16.66-9.93,30.59,0,46.07,26.6,75.42,48.93,91.93,27.13,20.07,58.53,29.09,72.16,29.09,27.1,0,106.17-.08,142.98-.12,.64-23.32,1.34-68.57,.07-137.39-1.93-51.43-11.65-84.77-30.6-104.91-19.71-20.96-52.27-30.72-102.48-30.72h-150.99V43.12h150.99c62,0,103.83,13.76,131.62,43.31,25.98,27.63,39.15,69.26,41.44,131.02v.37c2,107.56-.69,157.35-.8,159.41Z"/></g></svg>